REM DIRINDEX 1\2,1\3,1\4
REM DIRNAME folder01,folder02,folder03,folder04
TITLE ""
FILE "178 178_TOEFL_3900.mp3" MP3
  TRACK 01 AUDIO
    TITLE "2:cjc151_7765"
    INDEX 01 00:00:00
  TRACK 02 AUDIO
    TITLE "0:"
    INDEX 01 00:01:48
  TRACK 03 AUDIO
    TITLE "3:cjc151_7766"
    INDEX 01 00:03:27
  TRACK 04 AUDIO
    TITLE "0:"
    INDEX 01 00:08:09
  TRACK 05 AUDIO
    TITLE "2:cjc151_7767"
    INDEX 01 00:09:65
  TRACK 06 AUDIO
    TITLE "0:"
    INDEX 01 00:11:50
  TRACK 07 AUDIO
    TITLE "3:cjc151_7768"
    INDEX 01 00:13:30
  TRACK 08 AUDIO
    TITLE "0:"
    INDEX 01 00:17:37
  TRACK 09 AUDIO
    TITLE "2:cjc151_7769"
    INDEX 01 00:19:15
  TRACK 10 AUDIO
    TITLE "0:"
    INDEX 01 00:20:61
  TRACK 11 AUDIO
    TITLE "3:cjc151_7770"
    INDEX 01 00:22:40
  TRACK 12 AUDIO
    TITLE "0:"
    INDEX 01 00:27:43
  TRACK 13 AUDIO
    TITLE "2:cjc151_7771"
    INDEX 01 00:29:23
  TRACK 14 AUDIO
    TITLE "0:"
    INDEX 01 00:30:61
  TRACK 15 AUDIO
    TITLE "3:cjc151_7772"
    INDEX 01 00:32:41
  TRACK 16 AUDIO
    TITLE "0:"
    INDEX 01 00:36:05
  TRACK 17 AUDIO
    TITLE "2:cjc151_7773"
    INDEX 01 00:37:59
  TRACK 18 AUDIO
    TITLE "0:"
    INDEX 01 00:39:25
  TRACK 19 AUDIO
    TITLE "3:cjc151_7774"
    INDEX 01 00:41:06
  TRACK 20 AUDIO
    TITLE "0:"
    INDEX 01 00:45:47
  TRACK 21 AUDIO
    TITLE "2:cjc151_7775"
    INDEX 01 00:47:27
  TRACK 22 AUDIO
    TITLE "0:"
    INDEX 01 00:48:44
  TRACK 23 AUDIO
    TITLE "3:cjc151_7776"
    INDEX 01 00:50:23
  TRACK 24 AUDIO
    TITLE "0:"
    INDEX 01 00:54:62
  TRACK 25 AUDIO
    TITLE "2:cjc151_7777"
    INDEX 01 00:56:39
  TRACK 26 AUDIO
    TITLE "0:"
    INDEX 01 00:57:50
  TRACK 27 AUDIO
    TITLE "3:cjc151_7778"
    INDEX 01 00:59:30
  TRACK 28 AUDIO
    TITLE "0:"
    INDEX 01 01:04:68
  TRACK 29 AUDIO
    TITLE "2:cjc151_7779"
    INDEX 01 01:06:47
  TRACK 30 AUDIO
    TITLE "0:"
    INDEX 01 01:07:68
  TRACK 31 AUDIO
    TITLE "3:cjc151_7780"
    INDEX 01 01:09:48
  TRACK 32 AUDIO
    TITLE "0:"
    INDEX 01 01:14:21
  TRACK 33 AUDIO
    TITLE "2:cjc151_7781"
    INDEX 01 01:15:74
  TRACK 34 AUDIO
    TITLE "0:"
    INDEX 01 01:17:51
  TRACK 35 AUDIO
    TITLE "3:cjc151_7782"
    INDEX 01 01:19:30
  TRACK 36 AUDIO
    TITLE "0:"
    INDEX 01 01:24:36
  TRACK 37 AUDIO
    TITLE "2:cjc151_7783"
    INDEX 01 01:26:17
  TRACK 38 AUDIO
    TITLE "0:"
    INDEX 01 01:28:06
  TRACK 39 AUDIO
    TITLE "3:cjc151_7784"
    INDEX 01 01:29:60
  TRACK 40 AUDIO
    TITLE "0:"
    INDEX 01 01:33:56
  TRACK 41 AUDIO
    TITLE "2:cjc151_7785"
    INDEX 01 01:35:35
  TRACK 42 AUDIO
    TITLE "0:"
    INDEX 01 01:36:74
  TRACK 43 AUDIO
    TITLE "3:cjc151_7786"
    INDEX 01 01:38:51
  TRACK 44 AUDIO
    TITLE "0:"
    INDEX 01 01:43:03
  TRACK 45 AUDIO
    TITLE "2:cjc151_7787"
    INDEX 01 01:44:58
  TRACK 46 AUDIO
    TITLE "0:"
    INDEX 01 01:46:10
  TRACK 47 AUDIO
    TITLE "3:cjc151_7788"
    INDEX 01 01:47:60
  TRACK 48 AUDIO
    TITLE "0:"
    INDEX 01 01:52:26
  TRACK 49 AUDIO
    TITLE "2:cjc151_7789"
    INDEX 01 01:54:05
  TRACK 50 AUDIO
    TITLE "0:"
    INDEX 01 01:55:28
  TRACK 51 AUDIO
    TITLE "3:cjc151_7790"
    INDEX 01 01:57:08
  TRACK 52 AUDIO
    TITLE "0:"
    INDEX 01 02:02:48
  TRACK 53 AUDIO
    TITLE "2:cjc151_7791"
    INDEX 01 02:04:27
  TRACK 54 AUDIO
    TITLE "0:"
    INDEX 01 02:06:18
  TRACK 55 AUDIO
    TITLE "3:cjc151_7792"
    INDEX 01 02:08:01
  TRACK 56 AUDIO
    TITLE "0:"
    INDEX 01 02:12:54
  TRACK 57 AUDIO
    TITLE "2:cjc151_7793"
    INDEX 01 02:14:31
  TRACK 58 AUDIO
    TITLE "0:"
    INDEX 01 02:15:37
  TRACK 59 AUDIO
    TITLE "3:cjc151_7794"
    INDEX 01 02:17:12
  TRACK 60 AUDIO
    TITLE "0:"
    INDEX 01 02:20:44
  TRACK 61 AUDIO
    TITLE "2:cjc151_7795"
    INDEX 01 02:22:21
  TRACK 62 AUDIO
    TITLE "0:"
    INDEX 01 02:24:10
  TRACK 63 AUDIO
    TITLE "3:cjc151_7796"
    INDEX 01 02:25:67
  TRACK 64 AUDIO
    TITLE "0:"
    INDEX 01 02:29:55
  TRACK 65 AUDIO
    TITLE "2:cjc151_7797"
    INDEX 01 02:31:32
  TRACK 66 AUDIO
    TITLE "0:"
    INDEX 01 02:32:49
  TRACK 67 AUDIO
    TITLE "3:cjc151_7798"
    INDEX 01 02:34:32
  TRACK 68 AUDIO
    TITLE "0:"
    INDEX 01 02:38:12
  TRACK 69 AUDIO
    TITLE "2:cjc151_7799"
    INDEX 01 02:39:67
  TRACK 70 AUDIO
    TITLE "0:"
    INDEX 01 02:41:60
  TRACK 71 AUDIO
    TITLE "3:cjc151_7800"
    INDEX 01 02:43:37
  TRACK 72 AUDIO
    TITLE "0:"
    INDEX 01 02:48:32
  TRACK 73 AUDIO
    TITLE "2:cjc151_7801"
    INDEX 01 02:50:12
  TRACK 74 AUDIO
    TITLE "0:"
    INDEX 01 02:51:68
  TRACK 75 AUDIO
    TITLE "3:cjc151_7802"
    INDEX 01 02:53:47
  TRACK 76 AUDIO
    TITLE "0:"
    INDEX 01 02:57:20
  TRACK 77 AUDIO
    TITLE "2:cjc151_7803"
    INDEX 01 02:58:72
  TRACK 78 AUDIO
    TITLE "0:"
    INDEX 01 03:01:57
  TRACK 79 AUDIO
    TITLE "3:cjc151_7804"
    INDEX 01 03:03:32
  TRACK 80 AUDIO
    TITLE "0:"
    INDEX 01 03:07:45
  TRACK 81 AUDIO
    TITLE "2:cjc151_7805"
    INDEX 01 03:09:23
  TRACK 82 AUDIO
    TITLE "0:"
    INDEX 01 03:10:61
  TRACK 83 AUDIO
    TITLE "3:cjc151_7806"
    INDEX 01 03:12:41
  TRACK 84 AUDIO
    TITLE "0:"
    INDEX 01 03:17:05
  TRACK 85 AUDIO
    TITLE "2:cjc151_7807"
    INDEX 01 03:18:57
  TRACK 86 AUDIO
    TITLE "0:"
    INDEX 01 03:20:11
  TRACK 87 AUDIO
    TITLE "3:cjc151_7808"
    INDEX 01 03:21:65
  TRACK 88 AUDIO
    TITLE "0:"
    INDEX 01 03:26:45
